HIERARCHY
ROOT hips
{
	OFFSET -0.003675 0.299928 -0.021708
	CHANNELS 6 Xposition Yposition Zposition Xrotation Yrotation Zrotation
	JOINT LowerBack
	{
		OFFSET 0.000919 0.177588 0.009275
		CHANNELS 3 Xrotation Yrotation Zrotation
		JOINT spine
		{
			OFFSET 0.000919 0.177588 0.009275
			CHANNELS 3 Xrotation Yrotation Zrotation
			JOINT chest
			{
				OFFSET 0.000456 0.100015 0.004638
				CHANNELS 3 Xrotation Yrotation Zrotation
				JOINT neck
				{
					OFFSET 0.000456 0.100015 0.004638
					CHANNELS 3 Xrotation Yrotation Zrotation
					JOINT head
					{
						OFFSET 0.000924 0.155147 0.009274
						CHANNELS 6 Xposition Yposition Zposition Xrotation Yrotation Zrotation
						End Site
						{
							OFFSET 0.000000 0.153400 0.000000
						}
					}
				}
				JOINT shoulder.L
				{
					OFFSET 0.019937 0.078966 0.057518
					CHANNELS 6 Xposition Yposition Zposition Yrotation Xrotation Zrotation
					JOINT upper_arm.L
					{
						OFFSET 0.177024 -0.020465 -0.095062
						CHANNELS 6 Xposition Yposition Zposition Xrotation Yrotation Zrotation
						JOINT forearm.L
						{
							OFFSET 0.247100 -0.135500 -0.061800
							CHANNELS 3 Xrotation Yrotation Zrotation
							JOINT hand.L
							{
								OFFSET 0.217000 -0.143000 0.039300
								CHANNELS 3 Xrotation Yrotation Zrotation
								JOINT palm.01.L
								{
									OFFSET 0.021770 -0.038291 0.012954
									CHANNELS 6 Xposition Yposition Zposition Yrotation Xrotation Zrotation
									JOINT f_index.01.L
									{
										OFFSET 0.053215 -0.044137 0.008236
										CHANNELS 3 Xrotation Yrotation Zrotation
										JOINT f_index.02.L
										{
											OFFSET 0.036108 -0.024723 -0.010656
											CHANNELS 3 Xrotation Yrotation Zrotation
											JOINT f_index.03.L
											{
												OFFSET 0.021342 -0.014948 -0.010846
												CHANNELS 3 Xrotation Yrotation Zrotation
												End Site
												{
													OFFSET 0.015600 -0.009860 -0.013421
												}
											}
										}
									}
									JOINT thumb.01.L
									{
										OFFSET -0.009090 -0.002348 -0.024223
										CHANNELS 6 Xposition Yposition Zposition Xrotation Yrotation Zrotation
										JOINT thumb.02.L
										{
											OFFSET 0.019713 -0.035076 -0.011120
											CHANNELS 3 Xrotation Yrotation Zrotation
											JOINT thumb.03.L
											{
												OFFSET 0.024877 -0.021748 -0.005176
												CHANNELS 3 Xrotation Yrotation Zrotation
												End Site
												{
													OFFSET 0.016125 -0.013029 -0.001569
												}
											}
										}
									}
								}
								JOINT palm.02.L
								{
									OFFSET 0.032823 -0.025104 0.012281
									CHANNELS 6 Xposition Yposition Zposition Yrotation Xrotation Zrotation
									JOINT f_middle.01.L
									{
										OFFSET 0.055723 -0.038469 0.008037
										CHANNELS 3 Xrotation Yrotation Zrotation
										JOINT f_middle.02.L
										{
											OFFSET 0.038167 -0.027473 -0.015582
											CHANNELS 3 Xrotation Yrotation Zrotation
											JOINT f_middle.03.L
											{
												OFFSET 0.021707 -0.016587 -0.017037
												CHANNELS 3 Xrotation Yrotation Zrotation
												End Site
												{
													OFFSET 0.014112 -0.010584 -0.014294
												}
											}
										}
									}
								}
								JOINT palm.03.L
								{
									OFFSET 0.039230 -0.011402 0.008390
									CHANNELS 6 Xposition Yposition Zposition Yrotation Xrotation Zrotation
									JOINT f_ring.01.L
									{
										OFFSET 0.061796 -0.031470 0.007910
										CHANNELS 3 Xrotation Yrotation Zrotation
										JOINT f_ring.02.L
										{
											OFFSET 0.033092 -0.023401 -0.019127
											CHANNELS 3 Xrotation Yrotation Zrotation
											JOINT f_ring.03.L
											{
												OFFSET 0.021392 -0.015362 -0.017824
												CHANNELS 3 Xrotation Yrotation Zrotation
												End Site
												{
													OFFSET 0.008670 -0.007297 -0.014686
												}
											}
										}
									}
								}
								JOINT palm.04.L
								{
									OFFSET 0.043417 0.002450 0.002889
									CHANNELS 6 Xposition Yposition Zposition Yrotation Xrotation Zrotation
									JOINT f_pinky.01.L
									{
										OFFSET 0.069986 -0.026156 0.003627
										CHANNELS 3 Xrotation Yrotation Zrotation
										JOINT f_pinky.02.L
										{
											OFFSET 0.018520 -0.012813 -0.016429
											CHANNELS 3 Xrotation Yrotation Zrotation
											JOINT f_pinky.03.L
											{
												OFFSET 0.013822 -0.009796 -0.014947
												CHANNELS 3 Xrotation Yrotation Zrotation
												End Site
												{
													OFFSET 0.007238 -0.006103 -0.011657
												}
											}
										}
									}
								}
							}
						}
					}
				}
				JOINT shoulder.R
				{
					OFFSET -0.016662 0.078957 0.057696
					CHANNELS 6 Xposition Yposition Zposition Yrotation Xrotation Zrotation
					JOINT upper_arm.R
					{
						OFFSET -0.176972 -0.020537 -0.095144
						CHANNELS 6 Xposition Yposition Zposition Xrotation Yrotation Zrotation
						JOINT forearm.R
						{
							OFFSET -0.247100 -0.135500 -0.061800
							CHANNELS 3 Xrotation Yrotation Zrotation
							JOINT hand.R
							{
								OFFSET -0.217000 -0.143000 0.039300
								CHANNELS 3 Xrotation Yrotation Zrotation
								JOINT palm.01.R
								{
									OFFSET -0.021773 -0.038278 0.012988
									CHANNELS 6 Xposition Yposition Zposition Yrotation Xrotation Zrotation
									JOINT f_index.01.R
									{
										OFFSET -0.053212 -0.044139 0.008249
										CHANNELS 3 Xrotation Yrotation Zrotation
										JOINT f_index.02.R
										{
											OFFSET -0.036049 -0.024835 -0.010634
											CHANNELS 3 Xrotation Yrotation Zrotation
											JOINT f_index.03.R
											{
												OFFSET -0.021371 -0.014881 -0.010866
												CHANNELS 3 Xrotation Yrotation Zrotation
												End Site
												{
													OFFSET -0.015584 -0.009883 -0.013422
												}
											}
										}
									}
									JOINT thumb.01.R
									{
										OFFSET 0.009113 -0.002381 -0.024211
										CHANNELS 6 Xposition Yposition Zposition Xrotation Yrotation Zrotation
										JOINT thumb.02.R
										{
											OFFSET -0.019694 -0.035097 -0.011088
											CHANNELS 3 Xrotation Yrotation Zrotation
											JOINT thumb.03.R
											{
												OFFSET -0.024867 -0.021762 -0.005168
												CHANNELS 3 Xrotation Yrotation Zrotation
												End Site
												{
													OFFSET -0.016120 -0.013036 -0.001565
												}
											}
										}
									}
								}
								JOINT palm.02.R
								{
									OFFSET -0.032828 -0.025095 0.012286
									CHANNELS 6 Xposition Yposition Zposition Yrotation Xrotation Zrotation
									JOINT f_middle.01.R
									{
										OFFSET -0.055721 -0.038472 0.008040
										CHANNELS 3 Xrotation Yrotation Zrotation
										JOINT f_middle.02.R
										{
											OFFSET -0.038101 -0.027593 -0.015557
											CHANNELS 3 Xrotation Yrotation Zrotation
											JOINT f_middle.03.R
											{
												OFFSET -0.021730 -0.016530 -0.017054
												CHANNELS 3 Xrotation Yrotation Zrotation
												End Site
												{
													OFFSET -0.014096 -0.010608 -0.014293
												}
											}
										}
									}
								}
								JOINT palm.03.R
								{
									OFFSET -0.039192 -0.011488 0.008390
									CHANNELS 6 Xposition Yposition Zposition Yrotation Xrotation Zrotation
									JOINT f_ring.01.R
									{
										OFFSET -0.061839 -0.031387 0.007876
										CHANNELS 3 Xrotation Yrotation Zrotation
										JOINT f_ring.02.R
										{
											OFFSET -0.033068 -0.023437 -0.019125
											CHANNELS 3 Xrotation Yrotation Zrotation
											JOINT f_ring.03.R
											{
												OFFSET -0.021371 -0.015393 -0.017822
												CHANNELS 3 Xrotation Yrotation Zrotation
												End Site
												{
													OFFSET -0.008654 -0.007321 -0.014684
												}
											}
										}
									}
								}
								JOINT palm.04.R
								{
									OFFSET -0.043421 0.002443 0.002845
									CHANNELS 6 Xposition Yposition Zposition Yrotation Xrotation Zrotation
									JOINT f_pinky.01.R
									{
										OFFSET -0.069983 -0.026169 0.003599
										CHANNELS 3 Xrotation Yrotation Zrotation
										JOINT f_pinky.02.R
										{
											OFFSET -0.018501 -0.012842 -0.016428
											CHANNELS 3 Xrotation Yrotation Zrotation
											JOINT f_pinky.03.R
											{
												OFFSET -0.013806 -0.009821 -0.014946
												CHANNELS 3 Xrotation Yrotation Zrotation
												End Site
												{
													OFFSET -0.007226 -0.006121 -0.011655
												}
											}
										}
									}
								}
							}
						}
					}
				}
			}
		}
	}
	JOINT pelvis.L
	{
		OFFSET 0.000000 0.000000 0.000000
		CHANNELS 6 Xposition Yposition Zposition Xrotation Yrotation Zrotation
		JOINT thigh.L
		{
			OFFSET 0.101675 0.001054 -0.000000
			CHANNELS 3 Xrotation Yrotation Zrotation
			JOINT shin.L
			{
				OFFSET 0.000000 -0.534800 0.041000
				CHANNELS 3 Xrotation Yrotation Zrotation
				JOINT foot.L
				{
					OFFSET 0.000000 -0.452000 -0.044800
					CHANNELS 3 Xrotation Yrotation Zrotation
					JOINT toe.L
					{
						OFFSET -0.000000 -0.068500 0.109600
						CHANNELS 3 Xrotation Yrotation Zrotation
						End Site
						{
							OFFSET -0.000000 0.000000 0.067200
						}
					}
				}
				JOINT heel.L
				{
					OFFSET 0.000000 -0.452000 -0.044800
					CHANNELS 3 Xrotation Yrotation Zrotation
					JOINT heel.02.L
					{
						OFFSET -0.038000 -0.085200 0.016200
						CHANNELS 6 Xposition Yposition Zposition Xrotation Yrotation Zrotation
						End Site
						{
							OFFSET 0.080000 -0.000000 0.000000
						}
					}
				}
			}
		}
	}
	JOINT pelvis.R
	{
		OFFSET 0.000000 0.000000 0.000000
		CHANNELS 6 Xposition Yposition Zposition Xrotation Yrotation Zrotation
		JOINT thigh.R
		{
			OFFSET -0.094325 0.001054 0.000000
			CHANNELS 3 Xrotation Yrotation Zrotation
			JOINT shin.R
			{
				OFFSET 0.000000 -0.534800 0.041000
				CHANNELS 3 Xrotation Yrotation Zrotation
				JOINT foot.R
				{
					OFFSET 0.000000 -0.452000 -0.044800
					CHANNELS 3 Xrotation Yrotation Zrotation
					JOINT toe.R
					{
						OFFSET -0.000000 -0.068500 0.109600
						CHANNELS 3 Xrotation Yrotation Zrotation
						End Site
						{
							OFFSET -0.000000 0.000000 0.067200
						}
					}
				}
				JOINT heel.R
				{
					OFFSET 0.000000 -0.452000 -0.044800
					CHANNELS 3 Xrotation Yrotation Zrotation
					JOINT heel.02.R
					{
						OFFSET 0.038000 -0.085200 0.016200
						CHANNELS 6 Xposition Yposition Zposition Xrotation Yrotation Zrotation
						End Site
						{
							OFFSET -0.080000 0.000000 -0.000000
						}
					}
				}
			}
		}
	}
}
MOTION
Frames: 4
Frame Time: 0.041667
-0.003675 0.299928 -0.021708 0.000000 -0.000000 0.000000 -0.000001 0.000000 0.000000 -0.000000 0.000000 0.000000 -0.000000 0.000000 0.000000 -0.000000 -0.000000 -0.000000 0.000924 0.155147 0.009274 -0.000001 -0.000000 -0.000000 0.019937 0.078966 0.057518 0.000001 0.000001 -0.000005 0.177024 -0.020465 -0.095062 -0.000006 -0.000003 0.000015 -0.000009 -0.000004 -0.000009 -0.000000 0.000000 0.000001 0.021770 -0.038291 0.012954 0.000001 -0.000001 0.000001 -0.000001 -0.000001 -0.000002 -0.000001 -0.000000 0.000007 -0.000000 0.000000 0.000003 -0.009090 -0.002348 -0.024224 -0.000002 0.000001 0.000001 0.000001 -0.000001 0.000001 -0.000000 0.000000 -0.000001 0.032823 -0.025104 0.012281 0.000000 -0.000000 0.000000 0.000001 0.000004 -0.000003 -0.000001 -0.000000 -0.000000 -0.000001 -0.000003 0.000003 0.039230 -0.011402 0.008390 -0.000000 -0.000000 0.000008 0.000001 0.000001 -0.000000 -0.000001 0.000003 -0.000001 0.000002 0.000002 -0.000000 0.043417 0.002450 0.002889 -0.000000 0.000001 0.000002 -0.000001 -0.000003 0.000001 -0.000000 0.000003 -0.000000 -0.000000 -0.000003 0.000001 -0.016662 0.078956 0.057696 -0.000001 0.000002 0.000011 -0.176972 -0.020537 -0.095144 0.000001 -0.000003 -0.000005 -0.000006 0.000005 -0.000014 -0.000001 -0.000000 0.000000 -0.021773 -0.038278 0.012988 0.000000 -0.000001 -0.000003 -0.000001 0.000001 -0.000003 -0.000001 -0.000000 0.000001 0.000001 0.000002 0.000007 0.009113 -0.002381 -0.024211 0.000002 -0.000001 0.000004 -0.000000 0.000001 0.000002 0.000000 0.000000 -0.000003 -0.032828 -0.025095 0.012286 0.000001 -0.000001 -0.000001 -0.000001 0.000003 -0.000003 -0.000002 0.000004 -0.000001 0.000001 -0.000002 -0.000000 -0.039192 -0.011488 0.008390 0.000000 0.000000 0.000001 -0.000000 0.000003 -0.000003 -0.000001 0.000001 0.000002 -0.000001 0.000000 -0.000003 -0.043421 0.002443 0.002844 -0.000000 -0.000001 0.000000 -0.000007 0.000003 -0.000002 -0.000003 -0.000000 -0.000000 0.000001 -0.000000 0.000001 -0.000000 0.000000 -0.000000 -0.000001 -0.000000 0.000001 0.000009 -0.000202 0.000014 -0.000026 0.000202 -0.000015 0.000000 -0.000000 -0.000000 0.000002 -0.000000 -0.000000 0.000000 0.000000 -0.000000 -0.038000 -0.085200 0.016200 0.000000 0.000000 0.000000 0.000000 -0.000000 -0.000000 -0.000001 0.000000 -0.000004 0.000008 -0.000013 0.000005 -0.000012 0.000013 -0.000001 -0.000003 -0.000000 -0.000000 0.000000 -0.000000 -0.000000 0.000002 -0.000000 -0.000000 0.038000 -0.085200 0.016200 0.000002 -0.000000 0.000000 
-0.011098 0.226548 -0.012638 75.495747 15.538638 86.355482 0.000001 0.000000 -0.000000 -0.000001 -0.000000 0.000001 -0.000002 0.000001 -0.000002 -0.000002 -0.000000 -0.000000 0.000924 0.155148 0.009274 -4.190692 -0.000446 21.104728 0.019937 0.078966 0.057518 13.864953 5.356374 56.218761 0.177025 -0.020465 -0.095062 14.149466 -8.174104 48.349085 -1.557871 35.445834 37.462187 0.000002 -0.000001 -0.000002 0.021770 -0.038291 0.012954 -0.000001 0.000000 -0.000002 0.000000 -0.000003 -0.000001 -0.000000 0.000002 0.000014 -0.000002 0.000003 0.000002 -0.009090 -0.002348 -0.024223 0.000004 -0.000001 -0.000003 0.000001 -0.000001 0.000001 -0.000001 0.000001 -0.000002 0.032823 -0.025104 0.012281 -0.000003 0.000000 -0.000001 -0.000001 0.000002 -0.000005 -0.000002 0.000003 0.000001 -0.000005 -0.000002 0.000004 0.039230 -0.011402 0.008390 -0.000001 0.000001 0.000004 0.000000 -0.000003 -0.000000 -0.000001 0.000005 0.000005 0.000003 -0.000003 0.000002 0.043417 0.002449 0.002889 -0.000001 0.000002 -0.000002 0.000002 -0.000006 -0.000002 -0.000002 0.000002 -0.000006 0.000003 0.000005 -0.000001 -0.016662 0.078957 0.057696 -16.060749 4.546124 -41.897719 -0.176972 -0.020537 -0.095144 8.930794 38.961858 -37.902946 0.302113 -21.888091 -38.282473 0.000003 -0.000001 0.000001 -0.021773 -0.038278 0.012988 -0.000002 -0.000002 -0.000002 -0.000001 -0.000002 0.000004 0.000000 0.000001 -0.000004 -0.000001 0.000000 0.000001 0.009114 -0.002381 -0.024211 -0.000001 -0.000004 0.000000 -0.000002 -0.000001 -0.000003 0.000006 0.000001 0.000001 -0.032828 -0.025095 0.012286 0.000001 0.000000 0.000001 0.000003 0.000001 0.000002 -0.000001 0.000003 -0.000000 -0.000002 -0.000001 -0.000004 -0.039192 -0.011488 0.008390 -0.000002 0.000001 0.000003 -0.000002 0.000003 -0.000003 0.000003 -0.000000 -0.000000 -0.000001 0.000001 0.000000 -0.043421 0.002442 0.002845 -0.000002 -0.000000 0.000005 -0.000002 0.000002 -0.000001 -0.000001 -0.000001 -0.000003 0.000001 0.000003 -0.000001 0.000000 0.000000 -0.000000 -2.490094 3.574052 -33.855772 -53.339819 -1.236354 -12.749953 8.893495 0.938850 -9.514737 0.000002 -0.000003 0.000002 0.000001 -0.000000 -0.000001 0.000002 -0.000001 0.000004 -0.038000 -0.085200 0.016200 -0.000002 -0.000003 -0.000000 -0.000000 0.000000 -0.000000 -2.287628 3.441481 -32.633981 -73.698274 0.555394 2.501401 20.175906 3.806216 -42.161965 0.000000 -0.000001 -0.000001 0.000004 -0.000001 -0.000001 0.000003 -0.000001 0.000001 0.038000 -0.085200 0.016200 -0.000004 0.000001 0.000001 
-0.008695 0.207774 -0.004183 81.384347 23.350303 66.624554 0.000005 0.000001 0.000001 0.000002 -0.000001 -0.000000 -0.000001 -0.000001 -0.000003 0.000004 0.000001 -0.000002 0.000924 0.155148 0.009274 13.107077 -0.029408 14.493709 0.019937 0.078966 0.057518 10.193754 6.878947 51.006637 0.177024 -0.020465 -0.095062 -6.775589 -11.569310 11.660555 -1.388020 17.402374 42.983125 -0.000005 -0.000000 -0.000002 0.021770 -0.038291 0.012954 0.000001 -0.000002 0.000001 -0.000003 -0.000001 0.000003 -0.000000 -0.000003 0.000007 -0.000000 0.000001 -0.000000 -0.009090 -0.002348 -0.024223 0.000003 -0.000001 0.000002 0.000001 -0.000000 0.000001 -0.000000 -0.000001 0.000001 0.032823 -0.025104 0.012281 0.000003 -0.000000 0.000007 -0.000003 -0.000004 -0.000005 -0.000003 -0.000002 0.000001 -0.000001 0.000001 0.000006 0.039230 -0.011402 0.008390 0.000004 -0.000002 0.000006 0.000000 0.000002 0.000001 -0.000001 0.000007 0.000010 0.000002 -0.000003 0.000006 0.043417 0.002450 0.002889 -0.000000 -0.000001 -0.000002 -0.000003 -0.000003 -0.000002 0.000000 0.000004 0.000001 -0.000003 0.000000 -0.000003 -0.016662 0.078957 0.057696 -28.575416 9.927132 -43.818949 -0.176972 -0.020537 -0.095144 10.749961 0.790684 -43.934850 7.102248 -42.339322 -21.194470 -0.000001 0.000002 0.000003 -0.021773 -0.038278 0.012988 -0.000003 -0.000000 0.000002 -0.000000 0.000001 -0.000005 -0.000003 0.000001 -0.000003 0.000001 0.000002 -0.000003 0.009114 -0.002381 -0.024212 0.000001 -0.000003 -0.000001 -0.000002 -0.000002 -0.000003 -0.000000 0.000001 0.000003 -0.032828 -0.025095 0.012286 0.000000 0.000001 -0.000003 0.000003 0.000005 -0.000001 -0.000000 0.000001 0.000001 -0.000003 0.000003 -0.000000 -0.039192 -0.011488 0.008390 -0.000002 -0.000001 -0.000002 -0.000003 0.000001 0.000000 0.000000 0.000001 -0.000000 -0.000003 0.000002 -0.000003 -0.043421 0.002442 0.002845 -0.000003 -0.000000 0.000004 -0.000004 0.000003 -0.000006 -0.000001 -0.000003 0.000000 -0.000000 0.000002 -0.000002 -0.000000 0.000000 -0.000000 -2.023837 1.596898 -18.563889 -4.917454 -0.749760 -9.177670 1.737347 0.388966 -3.925457 0.000002 0.000001 0.000003 0.000000 -0.000001 0.000000 0.000005 -0.000003 0.000000 -0.038000 -0.085200 0.016200 -0.000001 0.000000 -0.000002 -0.000000 0.000000 0.000000 -1.922511 1.564045 -17.332495 -30.581957 0.294658 1.222516 26.365616 2.400928 -25.025530 0.000000 0.000001 0.000002 0.000002 0.000001 0.000000 0.000005 -0.000001 0.000005 0.038000 -0.085200 0.016200 -0.000003 -0.000001 0.000000 
-0.011815 0.207986 0.002328 87.307508 25.078226 36.885709 0.000001 0.000001 -0.000001 -0.000001 0.000000 0.000002 -0.000001 0.000003 -0.000001 -0.000000 0.000001 -0.000001 0.000924 0.155148 0.009274 23.764655 -0.030789 4.664515 0.019937 0.078966 0.057518 13.766414 6.694972 50.979542 0.177024 -0.020465 -0.095062 -4.711239 -24.400661 20.019068 -0.236344 30.527063 35.076085 -0.000002 0.000002 0.000004 0.021771 -0.038291 0.012954 -0.000001 0.000001 0.000001 -0.000005 0.000003 0.000002 0.000001 -0.000004 0.000006 0.000003 0.000002 0.000003 -0.009090 -0.002348 -0.024223 -0.000002 0.000002 0.000003 0.000002 0.000000 0.000006 0.000001 0.000001 -0.000002 0.032823 -0.025104 0.012281 -0.000003 0.000001 0.000007 -0.000001 0.000001 0.000000 0.000001 -0.000002 0.000003 -0.000002 0.000003 0.000003 0.039230 -0.011402 0.008390 0.000001 -0.000002 0.000004 0.000003 0.000001 0.000001 -0.000001 0.000003 0.000008 -0.000004 -0.000003 0.000004 0.043417 0.002449 0.002889 -0.000000 -0.000000 -0.000002 0.000001 -0.000001 -0.000002 0.000005 0.000004 0.000005 -0.000002 0.000001 -0.000006 -0.016662 0.078957 0.057696 -21.871394 8.084123 -48.000903 -0.176972 -0.020537 -0.095144 17.567836 15.437394 -49.688171 18.590759 -35.833836 -1.300610 -0.000001 0.000000 0.000000 -0.021772 -0.038278 0.012988 0.000001 -0.000001 -0.000003 -0.000002 0.000004 -0.000004 0.000001 0.000001 -0.000004 -0.000000 0.000000 0.000003 0.009114 -0.002381 -0.024211 0.000001 -0.000001 0.000002 0.000000 -0.000002 0.000000 0.000002 -0.000001 -0.000004 -0.032828 -0.025095 0.012286 0.000003 0.000001 -0.000003 -0.000002 0.000003 0.000002 -0.000002 0.000001 -0.000005 -0.000003 0.000005 -0.000004 -0.039192 -0.011488 0.008390 0.000002 0.000001 -0.000004 -0.000003 0.000003 -0.000003 0.000004 0.000000 0.000002 0.000002 0.000003 0.000001 -0.043420 0.002443 0.002845 0.000000 0.000000 -0.000003 -0.000001 0.000006 -0.000001 -0.000001 -0.000006 -0.000002 0.000001 0.000000 0.000002 -0.000000 0.000000 -0.000000 -2.161151 0.525056 -6.766883 -15.125338 0.492086 7.710991 -15.048406 -0.744510 7.535770 0.000000 -0.000002 0.000001 -0.000004 -0.000003 0.000002 0.000000 -0.000002 0.000003 -0.038000 -0.085200 0.016200 -0.000000 -0.000002 -0.000003 -0.000000 0.000000 -0.000000 -2.095878 0.518003 -5.533287 -39.750861 -0.502257 -9.721731 27.919605 1.286841 -13.098734 0.000000 -0.000000 0.000000 0.000001 0.000001 0.000000 0.000007 -0.000001 -0.000000 0.038000 -0.085200 0.016200 -0.000004 -0.000001 0.000002 
